<svg width="17" height="17" viewBox="0 0 17 17" fill="none" xmlns="http://www.w3.org/2000/svg">
<g clip-path="url(#clip0_653_628)">
<path d="M1.4836 7.8531C1.47511 7.7553 1.48704 7.6568 1.51863 7.56385C1.55023 7.47091 1.6008 7.38554 1.66713 7.31318C1.73347 7.24081 1.81413 7.18303 1.90398 7.14349C1.99383 7.10395 2.09093 7.08352 2.1891 7.08349H3.54166C3.72952 7.08349 3.90969 7.15812 4.04253 7.29096C4.17536 7.4238 4.24999 7.60397 4.24999 7.79183V14.521C4.24999 14.7089 4.17536 14.889 4.04253 15.0219C3.90969 15.1547 3.72952 15.2293 3.54166 15.2293H2.77453C2.59725 15.2294 2.42639 15.1629 2.29571 15.0431C2.16502 14.9233 2.08402 14.7589 2.06868 14.5823L1.4836 7.8531ZM6.37499 7.57047C6.37499 7.27439 6.55916 7.00947 6.82655 6.88339C7.41058 6.60785 8.40543 6.05429 8.85416 5.30593C9.43251 4.34118 9.5416 2.59833 9.5593 2.19918C9.56178 2.14322 9.56037 2.08726 9.5678 2.03201C9.66378 1.34033 10.9986 2.14818 11.5104 3.00243C11.7884 3.46568 11.8238 4.07449 11.7948 4.55014C11.7633 5.05872 11.6142 5.54995 11.4679 6.03799L11.1562 7.07818H15.0014C15.1109 7.07818 15.2188 7.10353 15.3168 7.15225C15.4148 7.20097 15.5002 7.27174 15.5662 7.359C15.6323 7.44626 15.6772 7.54763 15.6975 7.65517C15.7178 7.76272 15.7129 7.8735 15.6832 7.97883L13.7813 14.7137C13.7393 14.8622 13.65 14.993 13.5269 15.086C13.4037 15.1791 13.2536 15.2294 13.0992 15.2293H7.08333C6.89546 15.2293 6.7153 15.1547 6.58246 15.0219C6.44962 14.889 6.37499 14.7089 6.37499 14.521V7.57047Z" fill="#1A9B44" stroke="#1A9B44" stroke-width="2" stroke-linecap="round" stroke-linejoin="round"/>
</g>
<defs>
<clipPath id="clip0_653_628">
<rect width="17" height="17" fill="white"/>
</clipPath>
</defs>
</svg>
