<svg width="32" height="32" viewBox="0 0 32 32" fill="none" xmlns="http://www.w3.org/2000/svg">
<path fill-rule="evenodd" clip-rule="evenodd" d="M6.80527 0C5.00085 -1.33053e-07 3.2703 0.716622 1.99414 1.99229C0.71798 3.26796 0.00069294 4.99824 0 6.80265V24.95C0 26.7549 0.716981 28.4858 1.99322 29.7621C3.26945 31.0383 5.0004 31.7553 6.80527 31.7553H24.9526C26.7571 31.7546 28.4873 31.0373 29.763 29.7612C31.0387 28.485 31.7553 26.7544 31.7553 24.95V6.80265C31.7546 4.99869 31.0377 3.26881 29.7621 1.99322C28.4865 0.717621 26.7566 0.000692633 24.9526 0H6.80527ZM26.9101 6.81311C26.9101 7.33294 26.7036 7.83149 26.336 8.19907C25.9684 8.56664 25.4699 8.77315 24.95 8.77315C24.4302 8.77315 23.9316 8.56664 23.5641 8.19907C23.1965 7.83149 22.99 7.33294 22.99 6.81311C22.99 6.29327 23.1965 5.79473 23.5641 5.42715C23.9316 5.05957 24.4302 4.85306 24.95 4.85306C25.4699 4.85306 25.9684 5.05957 26.336 5.42715C26.7036 5.79473 26.9101 6.29327 26.9101 6.81311ZM15.8816 10.4405C14.4399 10.4405 13.0573 11.0132 12.0378 12.0326C11.0184 13.052 10.4457 14.4347 10.4457 15.8763C10.4457 17.318 11.0184 18.7006 12.0378 19.7201C13.0573 20.7395 14.4399 21.3122 15.8816 21.3122C17.3232 21.3122 18.7059 20.7395 19.7253 19.7201C20.7447 18.7006 21.3174 17.318 21.3174 15.8763C21.3174 14.4347 20.7447 13.052 19.7253 12.0326C18.7059 11.0132 17.3232 10.4405 15.8816 10.4405ZM7.82972 15.8763C7.82972 13.7415 8.67776 11.6942 10.1873 10.1847C11.6968 8.67514 13.7442 7.8271 15.879 7.8271C18.0137 7.8271 20.0611 8.67514 21.5706 10.1847C23.0802 11.6942 23.9282 13.7415 23.9282 15.8763C23.9282 18.0111 23.0802 20.0585 21.5706 21.568C20.0611 23.0775 18.0137 23.9256 15.879 23.9256C13.7442 23.9256 11.6968 23.0775 10.1873 21.568C8.67776 20.0585 7.82972 18.0111 7.82972 15.8763Z" fill="black"/>
</svg>
