<svg width="31" height="31" viewBox="0 0 31 31" fill="none" xmlns="http://www.w3.org/2000/svg">
<path d="M25.5417 24.0833C27.6037 24.0833 28.6348 24.0833 29.275 23.4417C29.9167 22.8015 29.9167 21.7704 29.9167 19.7083C29.9167 17.6462 29.9167 16.6152 29.275 15.975C28.6362 15.3333 27.6052 15.3333 25.5417 15.3333M5.125 24.0833C3.06292 24.0833 2.03188 24.0833 1.39167 23.4417C0.75 22.8029 0.75 21.7719 0.75 19.7083C0.75 17.6448 0.75 16.6152 1.39167 15.975C2.03042 15.3333 3.06146 15.3333 5.125 15.3333M25.5417 21.1667V18.25C25.5417 14.1258 25.5417 12.0623 24.2598 10.7819C22.9794 9.5 20.9158 9.5 16.7917 9.5H13.875C9.75083 9.5 7.68729 9.5 6.40687 10.7819C5.125 12.0623 5.125 14.1258 5.125 18.25V21.1667C5.125 25.2908 5.125 27.3544 6.40687 28.6348C7.68729 29.9167 9.75083 29.9167 13.875 29.9167H16.7917C20.9158 29.9167 22.9794 29.9167 24.2598 28.6348C25.5417 27.3544 25.5417 25.2908 25.5417 21.1667Z" stroke="#333A3A" stroke-width="1.5" stroke-linejoin="round"/>
<path d="M17.5208 2.9375C17.5208 3.51766 17.2903 4.07406 16.8801 4.4843C16.4699 4.89453 15.9135 5.125 15.3333 5.125C14.7532 5.125 14.1968 4.89453 13.7865 4.4843C13.3763 4.07406 13.1458 3.51766 13.1458 2.9375C13.1458 2.35734 13.3763 1.80094 13.7865 1.3907C14.1968 0.980468 14.7532 0.75 15.3333 0.75C15.9135 0.75 16.4699 0.980468 16.8801 1.3907C17.2903 1.80094 17.5208 2.35734 17.5208 2.9375Z" stroke="#333A3A" stroke-width="1.5"/>
<path d="M15.3333 5.125V9.5M10.9583 16.7917V18.25M19.7083 16.7917V18.25" stroke="#333A3A" stroke-width="1.5" stroke-linecap="round" stroke-linejoin="round"/>
<path d="M12.4167 23.3541C12.4167 23.3541 13.3894 24.0833 15.3334 24.0833C17.2773 24.0833 18.25 23.3541 18.25 23.3541" stroke="#333A3A" stroke-width="1.5" stroke-linecap="round"/>
</svg>
