<svg width="35" height="35" viewBox="0 0 35 35" fill="none" xmlns="http://www.w3.org/2000/svg">
<path fill-rule="evenodd" clip-rule="evenodd" d="M8.66318 0.57212C11.3941 0.26699 14.2445 0 17.1636 0C20.0827 0 22.9331 0.26699 25.6641 0.57212C27.7397 0.810124 29.6732 1.74528 31.1485 3.22469C32.6238 4.7041 33.5535 6.64025 33.7856 8.71657C34.078 11.4348 34.3272 14.2649 34.3272 17.1636C34.3272 20.0624 34.078 22.8924 33.7856 25.6107C33.5535 27.687 32.6238 29.6231 31.1485 31.1025C29.6732 32.582 27.7397 33.5171 25.6641 33.7551C22.9331 34.0602 20.0827 34.3272 17.1636 34.3272C14.2445 34.3272 11.3941 34.0602 8.66318 33.7551C6.58751 33.5171 4.65399 32.582 3.17873 31.1025C1.70348 29.6231 0.773769 27.687 0.541607 25.6107C0.24919 22.8924 0 20.0624 0 17.1636C0 14.2649 0.24919 11.4348 0.541607 8.71657C0.773769 6.64025 1.70348 4.7041 3.17873 3.22469C4.65399 1.74528 6.58751 0.810124 8.66318 0.57212ZM20.5506 6.69254C20.4628 6.31207 20.238 5.97724 19.9191 5.75192C19.6002 5.52659 19.2096 5.42655 18.8216 5.47088C18.4337 5.5152 18.0756 5.7008 17.8158 5.99225C17.556 6.2837 17.4125 6.66061 17.4128 7.05107V21.7406C17.4128 22.5211 17.1814 23.2841 16.7477 23.9331C16.3141 24.582 15.6978 25.0878 14.9767 25.3865C14.2555 25.6852 13.4621 25.7634 12.6965 25.6111C11.931 25.4588 11.2279 25.083 10.6759 24.5311C10.124 23.9792 9.74818 23.276 9.59591 22.5105C9.44364 21.745 9.52179 20.9515 9.82048 20.2304C10.1192 19.5093 10.625 18.8929 11.274 18.4593C11.9229 18.0257 12.6859 17.7942 13.4664 17.7942C13.8879 17.7942 14.2922 17.6268 14.5902 17.3287C14.8882 17.0307 15.0557 16.6265 15.0557 16.205C15.0557 15.7835 14.8882 15.3793 14.5902 15.0812C14.2922 14.7832 13.8879 14.6158 13.4664 14.6158C12.0573 14.6158 10.6798 15.0336 9.50811 15.8165C8.33645 16.5994 7.42324 17.7121 6.88398 19.014C6.34472 20.3159 6.20363 21.7485 6.47854 23.1306C6.75345 24.5126 7.43202 25.7822 8.42845 26.7786C9.42487 27.775 10.6944 28.4536 12.0765 28.7285C13.4585 29.0034 14.8911 28.8623 16.193 28.323C17.4949 27.7838 18.6076 26.8706 19.3905 25.6989C20.1734 24.5272 20.5913 23.1497 20.5913 21.7406V12.8664C22.1169 14.1632 24.085 14.8751 26.3938 14.8751C26.8153 14.8751 27.2195 14.7077 27.5176 14.4097C27.8156 14.1116 27.983 13.7074 27.983 13.2859C27.983 12.8644 27.8156 12.4602 27.5176 12.1622C27.2195 11.8641 26.8153 11.6967 26.3938 11.6967C24.7156 11.6967 23.4697 11.178 22.5517 10.3617C21.616 9.52771 20.9218 8.28685 20.5506 6.69254Z" fill="black"/>
</svg>
